<?xml version="1.0" encoding="utf-8"?>
<!-- Generator: Adobe Illustrator 24.3.0, SVG Export Plug-In . SVG Version: 6.00 Build 0)  -->
<svg version="1.1" id="Layer_1" xmlns="http://www.w3.org/2000/svg" xmlns:xlink="http://www.w3.org/1999/xlink" x="0px" y="0px"
	 viewBox="0 0 250 250" style="enable-background:new 0 0 250 250;" xml:space="preserve">
<style type="text/css">
	.st0{fill:none;}
	.st1{fill:#FFFFFF;}
	.st2{fill:none;stroke:#000000;stroke-miterlimit:10;}
</style>
<image style="overflow:visible;" width="512" height="512" xlink:href="../Downloads/men-icon-vector-11.png"  transform="matrix(1 0 0 1 -2120.6982 -753.321)">
</image>
<image style="overflow:visible;" width="1200" height="1200" xlink:href="../Downloads/leaderboard-trophy-icon-32.png"  transform="matrix(1 0 0 1 -1103 -2591)">
</image>
<image style="overflow:visible;" width="360" height="360" xlink:href="../Downloads/pngtree-leaf-design-transparent-background-png-image_3527036-removebg-preview.png"  transform="matrix(1 0 0 1 -700 -153)">
</image>
<image style="overflow:visible;" width="360" height="360" xlink:href="../Downloads/pngtree-leaf-design-transparent-background-png-image_3527036-removebg-preview.png"  transform="matrix(1 0 0 1 -737.3384 376.92)">
</image>
<path class="st0" d="M-548.5,257.2c0,0,32.4,5,72.7-23.8c23-16.9,32.8-40,31.7-73.1c0.1-14,5.4-41.4,6.8-43.2
	c1.4-1.8,1.1-3.6,0.7-4.3c-0.4-0.7-1.5-1.3-3.8,0c-2.2,1.3-22.5,12.2-44.1,20.5s-46.4,21.6-54.4,32c-7.9,10.4-26.3,37.4-30.1,86.4
	c-0.7,11.5,24.7-9.4,29.9-13.5c5.2-4.1,49.1-43.5,58.3-58.3c2-3.3,4.2-2.2,3.1,0.2c-1.1,2.4-16.7,38.6-65.7,72.7
	C-548,256-548.9,256.8-548.5,257.2z"/>
<path class="st1" d="M-548,634c0,0,32.4,5,72.7-23.8c23-16.9,32.8-40,31.7-73.1c0.1-14,6.4-40.9,6.8-43.2c0.5-2.3-0.8-5.6-3.1-4.3
	c-2.2,1.3-22.5,12.2-44.1,20.5s-46.4,21.6-54.4,32s-26.3,37.4-30.1,86.4c-0.7,11.5,24.7-9.4,29.9-13.5c5.2-4.1,49.1-43.5,58.3-58.3
	c2-3.3,4.2-2.2,3.1,0.2c-1.1,2.4-16.7,38.6-65.7,72.7C-547.5,632.8-548.4,633.5-548,634z"/>
<path class="st0" d="M-595.8,669.3c0,0,0.8,0.3,2-4.1c1.2-4.4,5.8-23.7,5.8-42.1c0-18.4-4.3-35-11.7-46.4
	c-7.4-11.3-30.1-42.1-77.3-62c-3.6-1.2,0.9,6.2,1.6,8.7c0.7,2.5,3.2,31.5,1.4,58.5s-4.3,56.2,6.1,70.6
	c10.4,14.4,20.3,28.8,60.2,28.8c3.4,0,2-0.8-0.8-3.4s-19.3-26.3-23.8-42.1c-4.5-15.8-5.8-23-8.5-51.8c-0.5-3.6,1.2-4.5,1.6-2.2
	c0.4,2.4,7.7,31.4,14.9,41.9s5,10.6,10.9,16.3s14.4,20,15.1,22.6C-597.6,665.1-597.3,669.4-595.8,669.3z"/>
<path class="st0" d="M-585.3,535.5c0,0,1.1,2.8,1.6-0.5c0.5-3.2,0.3-5.3,2.2-9.2c1.9-3.9,6-13.4,6.8-17.7s2.9-14.4,2.6-19.5
	c-0.3-5.1-0.5-9.2-0.2-9.5c0.3-0.4,0.9-1.6,1.6,0c0.7,1.6,3.7,18.8,3.7,27.6s-1.8,21-5.9,30c-4.1,8.9-0.2,7.2,1,6.6
	c1.3-0.6,28.9-9.4,28.9-35.6c0-17.1-4.9-21.6-7.2-29.3c-2.3-7.8-8.1-24.1-9-35.7c-0.3-1.9-0.9-4.7-0.5-6.9c0.4-2.2-0.7-2.8-1.6-1.7
	c-1,1.1-18.2,13.7-29.2,33.7c-5.8,10.8-6.8,21.8-6.8,31C-597.3,507.8-593.6,524.4-585.3,535.5z"/>
<g>
	<path d="M-275.6,199.8c0,0,31.6,4.9,71-23.2c22.5-16.5,32-39,30.9-71.4c0.1-13.7,6.2-40,6.7-42.2c0.4-2.3-0.8-5.4-3-4.2
		c-2.2,1.2-22,12-43.1,20s-45.3,21.1-53.1,31.3c-7.7,10.2-25.7,36.6-29.4,84.4c-0.7,11.2,24.1-9.1,29.2-13.2s48-42.5,56.9-56.9
		c1.9-3.2,4.1-2.1,3,0.2c-1.1,2.3-16.3,37.7-64.1,71C-275.2,198.6-276,199.4-275.6,199.8z"/>
	<path d="M-322.3,234.3c0,0,0.8,0.3,1.9-4c1.1-4.3,5.6-23.2,5.6-41.1s-4.2-34.2-11.4-45.3s-29.4-41.1-75.5-60.5
		c-3.5-1.2,0.9,6.1,1.6,8.5c0.7,2.4,3.1,30.8,1.4,57.1s-4.2,54.8,6,68.9C-382.6,231.9-373,246-334,246c3.3,0,2-0.8-0.8-3.3
		c-2.8-2.5-18.8-25.7-23.2-41.1c-4.4-15.5-5.6-22.5-8.3-50.6c-0.5-3.5,1.2-4.4,1.6-2.1s7.5,30.6,14.5,41c7,10.3,4.9,10.3,10.7,15.9
		s14.1,19.6,14.8,22C-324,230.2-323.7,234.4-322.3,234.3z"/>
	<path d="M-312,103.7c0,0,1.1,2.7,1.6-0.5c0.5-3.2,0.3-5.2,2.2-9c1.9-3.8,5.9-13.1,6.7-17.3s2.8-14.1,2.5-19.1c-0.3-5-0.4-9-0.2-9.3
		s0.9-1.6,1.6,0c0.7,1.6,3.6,18.4,3.6,27s-1.8,20.5-5.8,29.3s-0.2,7,1,6.4s28.2-9.1,28.2-34.8c0-16.7-4.7-21.1-7-28.6
		s-7.9-23.6-8.8-34.8c-0.3-1.9-0.9-4.6-0.5-6.7s-0.6-2.8-1.6-1.7s-17.8,13.4-28.5,32.9c-5.6,10.5-6.7,21.3-6.7,30.2
		S-320.2,92.8-312,103.7z"/>
</g>
<path class="st0" d="M-551.2-1103.6H-762c0,0-25-5.4-25,37.6s0,92.4,0,92.4s9,138.6,25,182.6s103,156,161,193c24,19,29,28,22,64
	s-23,109-36,143s-32,25-47,25s-99.8,0-99.8,0s-21.2,3-21.2,34s0,107,0,107s2,22,20,22"/>
<path class="st2" d="M1004.8-775.6H794c0,0-25-5.4-25,37.6s0,92.4,0,92.4S778-507,794-463s103,156,161,193c24,19,29,28,22,64
	S954-97,941-63s-32,25-47,25s-99.8,0-99.8,0S773-35,773-4s0,107,0,107s2,22,20,22"/>
<path d="M-339.2-203c18,0,20-22,20-22s0-76,0-107s-21.2-34-21.2-34s-84.8,0-99.8,0s-34,9-47-25s-29-107-36-143s-2-45,22-64
	c58-37,145-149,161-193s25-182.6,25-182.6s0-49.4,0-92.4s-25-37.6-25-37.6H-551h-0.2H-762c0,0-25-5.4-25,37.6s0,92.4,0,92.4
	s9,138.6,25,182.6s103,156,161,193c24,19,29,28,22,64s-23,109-36,143s-32,25-47,25s-99.8,0-99.8,0s-21.2,3-21.2,34s0,107,0,107
	s2,22,20,22H-339.2z"/>
<path d="M-799-1005"/>
<g>
	<path class="st1" d="M163.3-216c0-2,0-4,0-6c0-7.4,0.2-14.8-1.8-22.1c-4.7-17.6-21.8-32.4-39.8-33.2c-12.6-0.6-25.3-0.7-37.8-0.1
		c-24,1.1-42.8,20.6-43.3,44.6c-0.2,11.4-0.1,22.8-0.1,34.3c0,4.9,0,4.9,4.7,6.3c28.4,8.5,57.3,12,86.8,7.4
		c10-1.6,19.7-4.1,28.9-8.3c1.7-0.8,2.5-1.7,2.4-3.7C163.1-203.2,163.3-209.6,163.3-216z M32.1-219.7c-2.4-31.3,9.3-53.2,38.7-64.5
		c-8.5-8.5-12.8-18.6-13.5-30.7c-1.2,0-2.2,0-3.3,0c-10.2,0-20.5-0.1-30.7,0c-25.8,0.3-45.7,20.3-46,46c-0.1,12,0,24-0.1,35.9
		c0,1.6,0.5,2.2,2,2.6c7.7,1.9,15.2,4.3,22.9,5.8C11.8-222.5,21.6-221.3,32.1-219.7z M65.9-316.2c-0.1,19.9,15.9,35.9,35.8,36
		c19.9,0.1,36.2-16.1,36.2-36c0-19.8-16.3-36-36-36C82-352.2,65.9-336.1,65.9-316.2z M2.6-353.3c0,27.3,29.2,44.5,53.2,31.5
		c1.4-0.8,2.1-1.6,2.4-3.2c1.8-9.3,6.2-17.4,13.3-23.5c2.9-2.5,3.4-5,3-8.3c-0.2-1.1-0.3-2.2-0.5-3.3c-3.4-18.3-20.3-30.7-39.3-29
		C16.8-387.5,2.6-371.6,2.6-353.3z M161.4-389.3c-18.7,0-34.4,14.4-35.9,33.1c-0.1,1.2-0.3,2.3,1.1,3.3
		c10.8,7.4,17.2,17.5,19.2,30.4c0.2,1.4,0.8,2,2.1,2.5c5.4,2.1,11,3,16.9,2.5c19.3-1.9,33.4-18.3,32.5-38
		C196.5-374.2,180.5-389.3,161.4-389.3z"/>
	<path d="M222.8-231.3c-9.8,4.7-20.1,7.7-30.8,9.3c-6.5,1-13.1,1.5-20.1,2.3c0-1.6,0-2.9,0-4.1c0.1-8,0-16-2.5-23.7
		c-5.7-17.3-17.1-29-34.1-35.5c-0.7-0.3-1.4-0.5-2.5-0.9c8.6-8.6,13.1-18.8,13.6-30.8c10.4,0,20.6-0.1,30.7,0.1
		c3.6,0.1,7.3,0.5,10.9,1.4c18.2,4.5,31.6,19.5,34.4,38c0.1,0.6,0.3,1.2,0.5,1.8C222.8-259.5,222.8-245.4,222.8-231.3z"/>
	<path d="M163.3-216c0,6.4-0.1,12.8,0.1,19.2c0.1,2-0.7,3-2.4,3.7c-9.2,4.2-18.9,6.7-28.9,8.3c-29.5,4.7-58.4,1.2-86.8-7.4
		c-4.7-1.4-4.7-1.4-4.7-6.3c0-11.4-0.2-22.9,0.1-34.3c0.5-24,19.3-43.5,43.3-44.6c12.6-0.6,25.2-0.5,37.8,0.1
		c17.9,0.8,35.1,15.6,39.8,33.2c1.9,7.3,1.8,14.7,1.8,22.1C163.3-220,163.3-218,163.3-216z"/>
	<path d="M32.1-219.7c-10.4-1.6-20.3-2.8-29.9-4.7c-7.7-1.5-15.3-3.9-22.9-5.8c-1.5-0.4-2-1.1-2-2.6c0.1-12-0.1-24,0.1-35.9
		c0.3-25.8,20.3-45.7,46-46c10.2-0.1,20.5,0,30.7,0c1,0,2,0,3.3,0c0.7,12,5.1,22.2,13.5,30.7C41.4-272.9,29.7-250.9,32.1-219.7z"/>
	<path d="M65.9-316.2c0.1-19.9,16.1-35.9,36-35.9c19.8,0,36,16.2,36,36c0,19.9-16.3,36.1-36.2,36C81.7-280.3,65.8-296.3,65.9-316.2z
		"/>
	<path d="M2.6-353.3c0-18.4,14.2-34.2,32.1-35.8c19-1.7,35.9,10.7,39.3,29c0.2,1.1,0.3,2.2,0.5,3.3c0.4,3.3-0.1,5.8-3,8.3
		c-7.1,6.2-11.5,14.2-13.3,23.5c-0.3,1.5-1.1,2.4-2.4,3.2C31.8-308.7,2.7-326,2.6-353.3z"/>
	<path d="M161.4-389.3c19,0,35.1,15.1,35.9,33.8c0.9,19.7-13.2,36.1-32.5,38c-5.8,0.6-11.4-0.3-16.9-2.5c-1.2-0.5-1.8-1.1-2.1-2.5
		c-2-12.9-8.4-23.1-19.2-30.4c-1.4-1-1.2-2.1-1.1-3.3C127-374.9,142.7-389.3,161.4-389.3z"/>
</g>
<g>
	<path d="M245.7,39.4c0,2.4,0,4.7,0,7.1c-0.3,2.3-0.6,4.6-0.9,7c-1.8,17.3-5.7,33.9-13.3,49.6c-14.7,30.6-38.5,49.6-72,56
		c-2.5,0.5-5.1,0.9-7.7,1.3c3.5,12.1,6.9,23.9,10.2,35.8c0.5,1.7,1.6,1.4,2.7,1.5c10.5,0.8,20,9.9,20.5,20.4
		c0.4,9.3,0.1,18.6,0.1,27.8c-40.3,0-80.5,0-120.8,0c0-8.6-0.1-17.2,0.1-25.8c0.2-12,9.3-21.6,21.2-22.5c1.5-0.1,2-0.8,2.3-2
		c1.8-6.3,3.6-12.6,5.4-18.8c1.6-5.4,3.1-10.8,4.7-16.3c-0.4-0.2-0.6-0.4-0.8-0.4c-0.6-0.1-1.2-0.2-1.9-0.3
		c-14.2-2-27.5-6.3-39.7-13.9c-19.9-12.4-32.9-30.2-41.3-51.8c-6.2-16.1-9.3-32.8-10.2-50C3.4,29.3,14,17.5,28.9,16.7
		c6.6-0.4,13.2-0.1,19.8-0.2c1.2,0,2.5,0,3.6,0c0-4.4,0-8.4,0-12.5c48.4,0,96.9,0,145.3,0c0,4.1,0,8.1,0,12.5c1,0,1.8,0,2.7,0
		c6.1,0,12.3,0,18.4,0c9.8,0,17.8,3.7,23,12.3C243.6,32,244.4,35.9,245.7,39.4z M53.7,40.8c-7.9,0-15.7,0-23.4,0c-1.6,0-2,1-1.9,2.4
		C29.5,58.6,32.1,73.6,38,88c6.2,15.1,15.4,27.9,29.3,36.9c3.2,2,6.6,3.7,9.9,5.5C61,102.6,56.7,72,53.7,40.8z M172.3,130.3
		c1.4-0.6,2.3-1,3.2-1.4c13.2-6.4,23.2-16.3,30.5-28.9c10.2-17.6,14-36.9,15.5-56.8c0.1-1.9-1-2.4-2.7-2.4c-7.1,0-14.1,0-21.2,0
		c-0.4,0-0.9,0.1-1.4,0.2C193.4,72,189.1,102.5,172.3,130.3z"/>
</g>
</svg>
