<?xml version="1.0" encoding="utf-8"?>
<!-- Generator: Adobe Illustrator 24.3.0, SVG Export Plug-In . SVG Version: 6.00 Build 0)  -->
<svg version="1.1" id="Layer_1" xmlns="http://www.w3.org/2000/svg" xmlns:xlink="http://www.w3.org/1999/xlink" x="0px" y="0px"
	viewBox="0 0 250 250" style="enable-background:new 0 0 250 250;" xml:space="preserve">
<g>
	<path d="M250,76.7c-1.9,8.1-3.9,16.3-5.8,24.4c-4.1,17.6-8.1,35.1-12.2,52.7c-2.3,9.8-9.1,15.1-19.4,15.1c-45.9,0-91.8,0-137.7-0.1
		c-1.1,0-2.1,0-3.2,0.1c-4.6,0.4-7.7,3.8-7.6,8.2c0.1,4.5,3.2,7.7,7.8,8c1,0.1,2,0,2.9,0c47.4,0,94.7,0,142.1,0c0.7,0,1.5,0,2.2,0
		c3.6,0.2,6.4,2.3,7.3,5.5c0.9,3.2-0.5,6.3-3.6,8.3c-0.3,0.2-0.5,0.3-1,0.6c3,6.8,3.4,13.7,0.7,20.6c-1.9,4.9-5.1,8.9-9.4,11.8
		c-8.7,5.9-20.3,5.9-28.9,0c-10-6.9-12.7-16.5-9.1-32c-15.2,0-30.3,0-45.8,0c3,6.9,3.2,13.8,0.4,20.7c-2,4.9-5.4,8.9-9.9,11.8
		c-8.9,5.7-20.5,5.3-29.1-1.1c-9.4-7-12.1-17.1-8.2-31.4c-0.9-0.1-1.7-0.1-2.6-0.1c-4.1-0.2-8.4,0.2-12.4-0.6
		c-11.2-2.1-18.9-12.3-18.3-23.5c0.6-11.3,9.3-20.3,20.6-21.5c0.4,0,0.8-0.1,1.4-0.3c-1.6-5.9-3.1-11.7-4.7-17.5
		c-9.4-34.8-18.8-69.6-28.2-104.5c-0.9-3.5-1.4-3.9-5.1-3.9c-8.5,0-16.9,0.1-25.4,0c-5.9-0.1-9.5-4.9-7.6-9.9
		c1.1-2.8,3.2-4.6,6.3-4.7c10.2-0.1,20.3-0.2,30.5,0.1c6.9,0.2,13,5.7,14.9,12.9c2.8,9.9,5.4,19.9,8,29.9c0.4,1.7,1.1,2.3,2.9,2.3
		c38.6,0.1,77.1,0.3,115.7,0.4c17.7,0.1,35.3,0.4,53,0.2c8.4-0.1,15.1,2.3,18.1,12.4C250,73.4,250,75,250,76.7z M64.9,73.5
		c2.9,10.8,5.7,21.3,8.5,31.7c0.4,1.4,1.2,1.6,2.5,1.6c8.1,0,16.3,0,24.4,0c0.6,0,1.2-0.1,2-0.2c-0.1-1.1-0.1-2.1-0.3-3.1
		c-1.2-9.3-2.5-18.5-3.7-27.8c-0.2-1.7-0.8-2.2-2.4-2.2c-6.5,0-13,0-19.5-0.1C72.6,73.5,68.9,73.5,64.9,73.5z M159.9,74
		c0,10.9,0,21.8,0,32.6c0.4,0.1,0.6,0.2,0.8,0.2c8.4,0,16.9,0,25.3,0.1c1.4,0,1.7-0.7,1.9-1.9c0.9-7.3,1.9-14.6,2.9-22
		c0.4-2.9,0.7-5.9,1.1-9C181.1,74,170.6,74,159.9,74z M112.7,73.8c1.5,11.1,2.9,22,4.4,32.9c9.4,0,18.5,0,27.7,0c0-11,0-21.9,0-32.9
		C134.1,73.8,123.6,73.8,112.7,73.8z M235.4,74.1c-9.3,0-18.3,0-27.2,0c-1.6,0-1.5,1-1.7,2.1c-1.1,8.1-2.2,16.3-3.2,24.4
		c-0.3,2-0.4,4.1-0.7,6.3c8.2,0,16,0,23.8-0.1c0.6,0,1.5-0.8,1.7-1.4C230.6,95.1,232.9,84.8,235.4,74.1z M77.8,121.5
		c2.8,10.3,5.4,20.3,8.3,30.2c0.3,1,2,2.3,3,2.4c6.4,0.2,12.8,0.1,19.2,0.1c0-0.6,0.1-1,0.1-1.4c-1.3-10-2.6-20-4-29.9
		c-0.1-0.5-1-1.3-1.5-1.3C94.7,121.4,86.5,121.5,77.8,121.5z M159.8,154.2c6.9,0,13.6,0,20.2-0.1c0.5,0,1.4-1.1,1.5-1.8
		c0.9-5.8,1.6-11.6,2.4-17.4c0.6-4.4,1.1-8.8,1.7-13.3c-8.8,0-17.2,0-25.8,0C159.8,132.5,159.8,143.2,159.8,154.2z M119.1,121.6
		c1.4,10.5,2.7,20.7,4.1,31c0.2,1.3,0.8,1.7,2.1,1.7c5.5-0.1,11.1,0,16.6,0c1,0,2,0,3,0c0-11.1,0-21.9,0-32.6
		C136.2,121.6,127.8,121.6,119.1,121.6z M196.2,154.2c5.8,0,11.3,0,16.8,0c3.1,0,4.1-0.9,4.8-4c1.1-4.7,2.2-9.5,3.3-14.2
		c1.1-4.7,2.1-9.4,3.3-14.4c-8.1,0-15.8,0-23.9,0C199.1,132.4,197.7,143.2,196.2,154.2z M106.2,221.8c6.1,0,11-5,10.9-11.1
		c-0.1-5.9-5-10.8-11-10.9c-6,0-11,4.9-11,11C95.2,217,100.1,221.8,106.2,221.8z M198.7,221.8c6.1,0,11-4.8,11-10.9
		c0-6.1-5-11.1-11-11c-6,0-10.8,4.9-10.9,10.9C187.7,216.8,192.6,221.8,198.7,221.8z"/>
</g>
</svg>
