<?xml version="1.0" encoding="utf-8"?>
<!-- Generator: Adobe Illustrator 24.3.0, SVG Export Plug-In . SVG Version: 6.00 Build 0)  -->
<svg version="1.1" id="Layer_1" xmlns="http://www.w3.org/2000/svg" xmlns:xlink="http://www.w3.org/1999/xlink" x="0px" y="0px"
	 viewBox="0 0 250 250" style="enable-background:new 0 0 250 250;" xml:space="preserve">
<g>
	<path d="M440.9-202.9c-1.9,8.1-3.9,16.3-5.8,24.4c-4.1,17.6-8.1,35.1-12.2,52.7c-2.3,9.8-9.1,15.1-19.4,15.1
		c-45.9,0-91.8,0-137.7-0.1c-1.1,0-2.1,0-3.2,0.1c-4.6,0.4-7.7,3.8-7.6,8.2c0.1,4.5,3.2,7.7,7.8,8c1,0.1,2,0,2.9,0
		c47.4,0,94.7,0,142.1,0c0.7,0,1.5,0,2.2,0c3.6,0.2,6.4,2.3,7.3,5.5c0.9,3.2-0.5,6.3-3.6,8.3c-0.3,0.2-0.5,0.3-1,0.6
		c3,6.8,3.4,13.7,0.7,20.6c-1.9,4.9-5.1,8.9-9.4,11.8c-8.7,5.9-20.3,5.9-28.9,0c-10-6.9-12.7-16.5-9.1-32c-15.2,0-30.3,0-45.8,0
		c3,6.9,3.2,13.8,0.4,20.7c-2,4.9-5.4,8.9-9.9,11.8c-8.9,5.7-20.5,5.3-29.1-1.1c-9.4-7-12.1-17.1-8.2-31.4c-0.9-0.1-1.7-0.1-2.6-0.1
		c-4.1-0.2-8.4,0.2-12.4-0.6c-11.2-2.1-18.9-12.3-18.3-23.5c0.6-11.3,9.3-20.3,20.6-21.5c0.4,0,0.8-0.1,1.4-0.3
		c-1.6-5.9-3.1-11.7-4.7-17.5c-9.4-34.8-18.8-69.6-28.2-104.5c-0.9-3.5-1.4-3.9-5.1-3.9c-8.5,0-16.9,0.1-25.4,0
		c-5.9-0.1-9.5-4.9-7.6-9.9c1.1-2.8,3.2-4.6,6.3-4.7c10.2-0.1,20.3-0.2,30.5,0.1c6.9,0.2,13,5.7,14.9,12.9c2.8,9.9,5.4,19.9,8,29.9
		c0.4,1.7,1.1,2.3,2.9,2.3c38.6,0.1,77.1,0.3,115.7,0.4c17.7,0.1,35.3,0.4,53,0.2c8.4-0.1,15.1,2.3,18.1,12.4
		C440.9-206.2,440.9-204.5,440.9-202.9z M255.8-206c2.9,10.8,5.7,21.3,8.5,31.7c0.4,1.4,1.2,1.6,2.5,1.6c8.1,0,16.3,0,24.4,0
		c0.6,0,1.2-0.1,2-0.2c-0.1-1.1-0.1-2.1-0.3-3.1c-1.2-9.3-2.5-18.5-3.7-27.8c-0.2-1.7-0.8-2.2-2.4-2.2c-6.5,0-13,0-19.5-0.1
		C263.5-206,259.8-206,255.8-206z M350.8-205.6c0,10.9,0,21.8,0,32.6c0.4,0.1,0.6,0.2,0.8,0.2c8.4,0,16.9,0,25.3,0.1
		c1.4,0,1.7-0.7,1.9-1.9c0.9-7.3,1.9-14.6,2.9-22c0.4-2.9,0.7-5.9,1.1-9C372-205.6,361.5-205.6,350.8-205.6z M303.6-205.8
		c1.5,11.1,2.9,22,4.4,32.9c9.4,0,18.5,0,27.7,0c0-11,0-21.9,0-32.9C325-205.8,314.4-205.8,303.6-205.8z M426.3-205.5
		c-9.3,0-18.3,0-27.2,0c-1.6,0-1.5,1-1.7,2.1c-1.1,8.1-2.2,16.3-3.2,24.4c-0.3,2-0.4,4.1-0.7,6.3c8.2,0,16,0,23.8-0.1
		c0.6,0,1.5-0.8,1.7-1.4C421.4-184.5,423.8-194.8,426.3-205.5z M268.7-158.1c2.8,10.3,5.4,20.3,8.3,30.2c0.3,1,2,2.3,3,2.4
		c6.4,0.2,12.8,0.1,19.2,0.1c0-0.6,0.1-1,0.1-1.4c-1.3-10-2.6-20-4-29.9c-0.1-0.5-1-1.3-1.5-1.3
		C285.6-158.1,277.4-158.1,268.7-158.1z M350.7-125.4c6.9,0,13.6,0,20.2-0.1c0.5,0,1.4-1.1,1.5-1.8c0.9-5.8,1.6-11.6,2.4-17.4
		c0.6-4.4,1.1-8.8,1.7-13.3c-8.8,0-17.2,0-25.8,0C350.7-147.1,350.7-136.4,350.7-125.4z M310-158c1.4,10.5,2.7,20.7,4.1,31
		c0.2,1.3,0.8,1.7,2.1,1.7c5.5-0.1,11.1,0,16.6,0c1,0,2,0,3,0c0-11.1,0-21.9,0-32.6C327.1-158,318.7-158,310-158z M387.1-125.4
		c5.8,0,11.3,0,16.8,0c3.1,0,4.1-0.9,4.8-4c1.1-4.7,2.2-9.5,3.3-14.2c1.1-4.7,2.1-9.4,3.3-14.4c-8.1,0-15.8,0-23.9,0
		C390-147.2,388.5-136.4,387.1-125.4z M297.1-57.8c6.1,0,11-5,10.9-11.1c-0.1-5.9-5-10.8-11-10.9c-6,0-11,4.9-11,11
		C286.1-62.6,290.9-57.7,297.1-57.8z M389.5-57.8c6.1,0,11-4.8,11-10.9c0-6.1-5-11.1-11-11c-6,0-10.8,4.9-10.9,10.9
		C378.6-62.7,383.4-57.8,389.5-57.8z"/>
</g>
<g>
	<path d="M800.4,64c0,40.7,0,81.4,0,122c-0.4,2.6-0.7,5.1-1.2,7.7c-6.4,28.3-23.5,46.5-51.5,54.2c-3.6,1-7.5,1.4-11.2,2
		c-40.7,0-81.3,0-122,0c-0.8-0.1-1.6-0.3-2.4-0.4c-6.8-0.8-13.5-2.3-19.7-5.2c-26.8-12.7-41.3-33.9-41.7-63.7
		c-0.5-37.1-0.1-74.2-0.1-111.3c0-12,2.7-23.5,8.8-33.8c13.8-23.4,34.4-35.3,61.5-35.5c36.4-0.2,72.9-0.1,109.3,0
		c4.7,0,9.5,0.3,14.1,1.3c28.3,6.2,46.4,23.5,54.2,51.4C799.4,56.4,799.8,60.3,800.4,64z M778.3,125.3c0-18.1,0-36.3,0-54.4
		c0-5.7-0.6-11.4-2.5-16.8c-7.1-19.9-24.2-31.8-45.8-31.8c-36.3,0-72.5-0.1-108.8,0.1c-5.5,0-11.3,0.8-16.5,2.5
		c-20,6.7-31.9,24-31.9,45.6c0,36.4-0.1,72.7,0.1,109.1c0,5.4,0.8,11.1,2.5,16.3c6.7,19.9,23.9,31.9,45.4,32
		c36.6,0.1,73.2,0.1,109.8,0c16.3,0,29.4-6.5,39.1-19.7c6.2-8.5,8.7-18.2,8.7-28.6C778.3,161.4,778.3,143.3,778.3,125.3z"/>
	<path d="M739.9,125.1c-0.1,35.5-29.3,64.5-64.6,64.3c-35.5-0.2-64.5-29.4-64.2-64.6c0.3-35.5,29.2-64.2,64.4-64.2
		C710.9,60.7,740,89.8,739.9,125.1z M675.6,82.8c-23.2-0.1-42.1,18.8-42.3,42.1c-0.1,23.2,18.8,42.2,42.1,42.3
		c23.2,0.1,42.1-18.8,42.3-42.1C717.8,101.9,698.9,83,675.6,82.8z"/>
	<path d="M742.6,41.9c9,0,16.4,7.5,16.3,16.3c-0.1,8.9-7.4,16.1-16.3,16.1c-8.9,0-16.4-7.5-16.3-16.3
		C726.4,49.1,733.7,41.9,742.6,41.9z"/>
</g>
<g>
	<path d="M487,250c-55.3,0-110.6,0-165.9,0c-0.4-0.1-0.7-0.4-1.1-0.4c-20.6-1.9-41-21.3-40.9-46.6c0.2-52,0-104,0.1-156
		c0-6.7,1-13.2,4-19.2c9-17.9,23.3-27.7,43.7-27.8c41-0.1,82,0,123,0c11.3,0,22.6-0.2,33.9,0.1c20.9,0.5,38.9,15.2,43.9,35.5
		c0.5,2.1,0.9,4.3,1.4,6.4c0,55.3,0,110.6,0,166c-0.2,0.5-0.4,1.1-0.5,1.6c-2.5,18.8-16.6,34.4-35.1,39
		C491.3,249.2,489.1,249.5,487,250z M482.5,65.7c-5.3,2.1-10.5,4.2-15.7,6.1c-3.3,1.3-6,1.2-9.3-1.6c-11-9.2-23.6-10.4-36.3-4.2
		c-12.7,6.2-19.2,16.8-19.2,31.2c0,2.4,0.3,4.8,0.4,7.3c-28.5-2.1-51.9-14.1-70.3-35.7c-4.4,7.9-5.6,16-4,24.5
		c1.6,8.7,6.3,15.4,13.4,20.6c-0.2,0.3-0.3,0.6-0.5,0.8c-5-1.4-9.9-2.7-14.9-4c-0.5,4.2,1,10.6,4.1,16c5.2,8.7,12.6,14.7,22.7,17.1
		c0,0.3-0.1,0.6-0.1,0.9c-4.3,0-8.7,0-13.4,0c5.9,14.5,16.1,22.5,31.7,23.9c-14.9,11.4-31.3,15.8-49.6,14.2c0.4,0.4,0.6,0.6,0.9,0.8
		c7.7,4.7,15.9,8.4,24.7,10.8c13.4,3.7,26.9,4.4,40.6,2.5c17.6-2.4,33.6-8.7,47-20.3c23.8-20.7,36-46.8,35.8-78.6c0-1,0.7-2.2,1.5-3
		c2.3-2.2,4.9-4.1,7.1-6.3c2.8-2.9,5.2-6,8.2-9.6c-6.5,1.8-12.2,3.4-17.9,4.9c-0.1-0.3-0.2-0.5-0.4-0.8
		C475.5,78.9,480,73.1,482.5,65.7z"/>
</g>
<g>
	<path d="M222.6,249.9c-16.9,0-33.8,0-50.7,0c0-28.6,0-57.1,0-85.8c7.2,0,14.1-0.1,21,0.1c1.9,0,2.7-0.6,3.3-2.3
		c4.4-11.2,8.9-22.3,13.3-33.5c0.4-1,0.8-2.1,1.3-3.4c-13.2,0-26,0-39,0c0-7.2,0-14.3,0-21.4c0-3.5-0.1-7,0.1-10.5
		c0.2-4.1,1.9-6,6-6.7c1.4-0.3,2.9-0.4,4.4-0.4c5.6,0,11.2,0,16.8,0c1.3,0,2.5,0,3.7,0c0-13.2,0-26.1,0-38.9
		c-11.5,0-22.8-0.1-34.1,0.1c-2.5,0-5,0.5-7.5,1.1c-22.1,5.5-36.2,23.7-36.3,46.5c0,9.2,0,18.4,0,27.5c0,0.9,0,1.7,0,2.9
		c-10.6,0-20.8,0-31.1,0c0,13.1,0,25.9,0,39c10.4,0,20.7,0,31.1,0c0,28.8,0,57.3,0,85.8c-32.5,0-65,0-97.5,0
		c-0.2-0.1-0.4-0.3-0.6-0.4c-13.7-1.7-26.9-14.1-26.8-32.6C0.4,155.6,0.2,94.3,0.3,33.1c0-2.8,0.2-5.7,0.8-8.5
		C4.5,9.8,16.8,0.2,32.4,0.2c50.1,0,100.2,0,150.4,0c11.9,0,23.9-0.1,35.8,0c13.7,0.1,25.3,8.5,29.6,21.3c0.7,2,1.1,4,1.7,6
		c0,65,0,130.1,0,195.1c-0.2,0.4-0.4,0.7-0.4,1.1c-2.3,12.2-9.3,20.3-20.9,24.6C226.6,248.9,224.6,249.3,222.6,249.9z"/>
</g>
</svg>
