<?xml version="1.0" encoding="utf-8"?>
<!-- Generator: Adobe Illustrator 24.3.0, SVG Export Plug-In . SVG Version: 6.00 Build 0)  -->
<svg version="1.1" id="Layer_1" xmlns="http://www.w3.org/2000/svg" xmlns:xlink="http://www.w3.org/1999/xlink" x="0px" y="0px"
	viewBox="0 0 250 250" style="enable-background:new 0 0 250 250;" xml:space="preserve">
<g>
	<path d="M-200.4-131.1c7,1.2,14.1,2,20.9,3.7c18.1,4.6,33.8,13.9,47,27.1c16.5,16.6,26.6,36.7,29.5,59.9c3.4,26.4-2.3,50.9-17.3,73
		c-0.8,1.2-1.6,2.4-2.3,3.4c5.5,5.6,10.9,10.9,16.4,16.4c0.1-0.1,0.5-0.2,0.8-0.4c7.3-5.3,14.7-4.8,21.3,1.7c15,15,30,30,45.1,45.1
		c7.2,7.2,14.3,14.3,21.5,21.5c7.4,7.4,7.4,16,0.1,23.4c-6.3,6.4-12.7,12.7-19,19c-7.4,7.3-16,7.3-23.4-0.1
		c-21.6-21.6-43.3-43.3-64.9-64.9c-8.4-8.4-9.1-13.9-3.1-23.5c-5.5-5.5-10.9-10.9-16.3-16.4c-3.5,2.2-7.3,4.9-11.3,7
		c-37.5,19.6-74.5,18.5-109.8-4.8c-25.7-16.9-40.5-41.5-44.9-72.1c-0.4-2.7-0.7-5.4-1.1-8c0-4.1,0-8.2,0-12.3
		c0.7-4.9,1.2-9.8,2.1-14.7c4.1-20.2,13.4-37.7,27.7-52.4c13-13.4,28.5-22.9,46.6-27.7c7.3-1.9,14.9-2.8,22.3-4.1
		C-208.5-131.1-204.5-131.1-200.4-131.1z M-281.6-24.3c0.3,2.6,0.5,7.4,1.4,12.1c6,31,30.4,54.7,61.5,59.7
		c31.1,4.9,55.1-7.6,73.4-31.7c11.6-15.2,15.1-33,12.7-52c-5.4-42.4-46.6-72-88.5-63.6C-256.1-92.9-281.4-62.1-281.6-24.3z"/>
</g>
<g>
	<path d="M249.9,147.7c-0.1,0.4-0.2,0.8-0.2,1.2c-0.5,15.4-4,30.1-10.1,44.3c-6.1,14-14.5,26.4-25.1,37.4c-0.3,0.3-0.5,0.7-0.9,0.9
		c-5.5-19.4-15.9-35.5-31.6-48.1c-15.7-12.5-33.7-19-53.4-19.9c2.6-0.5,5.7-0.9,8.7-1.5c3-0.6,5.9-1.7,8.7-3
		c2.9-1.3,5.6-2.8,8.1-4.6c2.5-1.8,4.9-3.7,7.1-5.9c2.2-2.2,4.2-4.6,6-7.2c1.8-2.5,3.3-5.2,4.6-8c1.3-2.8,2.3-5.8,3.1-8.8
		c0.7-3,1.2-6,1.4-9.1c0.2-3.1,0.1-6.2-0.3-9.3c-3.1-26.2-26.3-46.9-54.6-45c-25.8,1.8-46.9,22.9-47.6,49.9
		c-0.7,27.3,20.2,50.6,48.1,52.6c-4.3,0.2-8.5,0.6-12.7,1.4c-4.3,0.8-8.5,1.8-12.6,3.2c-4.1,1.3-8.1,3-11.9,4.9
		c-3.9,1.9-7.6,4.1-11.2,6.6c-3.6,2.4-6.9,5.1-10.1,8c-3.2,2.9-6.2,6.1-9,9.5c-2.7,3.3-5.2,6.9-7.5,10.5c-2.3,3.7-4.2,7.6-5.9,11.6
		c-1.7,4-3.1,8-4.3,12.4c-0.4-0.4-0.7-0.6-1-0.9c-12.9-13.3-22.5-28.7-28.6-46.2c-2.7-7.6-4.5-15.5-5.6-23.5
		C0.5,154.3,0,147.6,0.2,141c0.3-12.6,2.3-24.8,6.3-36.8c4.7-14.2,11.7-27.1,21-38.8C40,49.9,55.3,38,73.4,29.7
		c9.2-4.2,18.8-7.2,28.8-9.1c9.6-1.8,19.3-2.4,29.1-1.9c20.2,1,39.2,6.6,56.7,16.8c18.1,10.6,32.7,24.9,43.7,42.8
		c7.4,12.1,12.6,25.1,15.6,39c1.2,5.5,2,11.1,2.4,16.8c0.1,1.2,0.1,2.5,0.1,3.7c0,0.4,0.1,0.9,0.2,1.3
		C249.9,141.9,249.9,144.8,249.9,147.7z"/>
</g>
</svg>
